<?xml version="1.0" encoding="UTF-8"?>
<svg id="Calque_2" data-name="Calque 2" xmlns="http://www.w3.org/2000/svg" viewBox="0 0 30.63 33.67">
  <defs>
    <style>
      .cls-1 {
        fill: #fff;
      }

      .cls-2 {
        fill: #1e1e1c;
      }
    </style>
  </defs>
  <g id="Calque_1-2" data-name="Calque 1">
    <g>
      <path class="cls-2" d="m.06,9.49c.34,0,.67-.04,1.01-.04.71-.01,1.42-.07,2.12-.13.89-.08,1.78-.1,2.65-.29.4-.09.71-.32.93-.63.26-.36.44-.76.59-1.19.26-.77.71-1.4,1.43-1.83.36-.21.75-.32,1.16-.32.5,0,1.01,0,1.52-.01l.68.37-.5.54c-.52,0-1.05.01-1.57.02-.81,0-1.35.44-1.68,1.15-.16.35-.28.71-.44,1.06-.48,1.04-1.21,1.7-2.44,1.83-1.55.16-3.09.28-4.64.36-.29.02-.58.03-.87.04"/>
      <path class="cls-2" d="m30.6,16.88c-.06,1.41-.08,14.31-.11,15.72,0,.36-.01.72-.13,1.07,0-.1-.01-.2-.02-.3,0-2.28-.14-16.06-.16-18.34-.01-1.01-.26-2-.78-2.9-.29-.5-.73-.79-1.25-.92-1.35-.34-2.7-.64-4.07-.89-.57-.11-1.14-.16-1.71-.32-.94-.25-1.59-.79-1.95-1.71-.22-.57-.52-1.12-.83-1.65-.32-.54-.87-.74-1.46-.74-.22,0-.44,0-.65,0l-.38-.43.7-.36c.25,0,.49.01.74.02.87.02,1.51.58,1.9,1.35.32.64.58,1.32.9,1.96.25.5.72.75,1.24.87,1.08.25,2.17.44,3.25.69.8.18,1.6.39,2.4.61,1.24.35,1.8,1.3,2.12,2.46.34,1.25.31,2.53.26,3.81Z"/>
      <path class="cls-2" d="m22.01,20.3c-.02,4.53-3.58,8.1-7.98,8.1-4.47,0-7.75-3.58-7.98-7.58-.3-5.03,3.72-8.7,8.01-8.65,4.36.04,7.95,3.6,7.95,8.13Zm-14.76-.02c0,3.91,3.08,7.08,7.02,7.02,3.71-.06,6.86-3.07,6.78-7.23-.07-3.61-3.06-6.96-7.24-6.78-3.44.15-6.54,3.03-6.55,6.99Z"/>
      <path class="cls-2" d="m26.52,14.12c-1.19.08-2.4.18-3.61.16-.17,0-.28-.09-.38-.19-.49-.47-.96-.97-1.47-1.41-.84-.73-1.68-1.47-2.74-1.88-.23-.09-.46-.12-.69-.12-1.98,0-3.97-.02-5.95,0-.95.01-1.92-.04-2.76.56-.56.41-1.1.84-1.62,1.3-.58.52-1.11,1.08-1.66,1.63-.08.08-.16.1-.26.1-1.22-.01-2.45-.02-3.67-.03-.06,0-.12-.02-.18-.1.14,0,.27-.02.41-.02,1.06,0,2.12-.02,3.18-.01.21,0,.35-.07.48-.23.94-1.15,1.93-2.25,3.17-3.1.5-.34,1.03-.55,1.65-.57,1.67-.05,3.34-.16,5.01-.15.94,0,1.86.13,2.8.17.35.02.66.22.95.41,1.28.85,2.39,1.9,3.37,3.08.21.26.42.41.77.4,1.07-.02,2.15,0,3.22,0Z"/>
      <path class="cls-2" d="m19.48,19.86c-.07-1.05-.47-2.07-1.12-2.92.01.07.02.15.02.23,0,.98-.79,1.77-1.77,1.77s-1.77-.79-1.77-1.77.75-1.72,1.68-1.77c-.74-.38-1.59-.61-2.51-.61-2.97-.02-5.58,2.47-5.47,5.51-.08,3.04,2.48,5.47,5.44,5.49,2.96.02,5.74-2.45,5.5-5.93Z"/>
      <path class="cls-2" d="m17.47,5.91l-.38-.43.7-.36,1.79-.91-2.76-.42,1.09-2.57-2.39,1.46-.82-2.67-.89,2.65-2.35-1.52,1.02,2.6-2.78.35,1.77.97.68.37-.5.54-1.4,1.5,2.74-.55-.14,2.79,1.75-2.18,1.69,2.23-.07-2.79,2.72.62-1.47-1.67Zm-1.9.25l.04,1.71-1.03-1.37-1.07,1.34.09-1.71-1.68.34.48-.52.69-.74-.3-.16-1.2-.66,1.7-.21-.62-1.6,1.44.93.55-1.62.5,1.64,1.46-.89-.67,1.58,1.7.26-1.22.62-.31.16.58.66.56.63-1.67-.38Z"/>
      <path class="cls-1" d="m9.69,22.43c.22-.25.45-.49.67-.74.15-.16.29-.32.44-.48.04-.04.08-.07.14-.07.1,0,.19-.01.29-.02.09,0,.15-.03.21-.1.21-.24.43-.46.64-.7.05-.06.08-.06.14,0,.2.18.41.35.62.53.06.05.09.04.14,0,.23-.24.47-.48.7-.72.06-.06.12-.09.19-.08.07,0,.11-.02.15-.07.15-.19.3-.37.45-.56.04-.06.07-.05.11,0,.27.3.54.59.81.88.28.3.56.6.83.91.05.06.08.05.12,0,.05-.06.11-.11.16-.17.04-.05.07-.05.12,0,.59.48,1.18.96,1.77,1.43.07.06.14.11.21.18-.17-.08-.34-.17-.51-.25-.51-.25-1.02-.5-1.52-.76-.05-.02-.08-.02-.12,0-.13.06-.26.12-.38.18-.07.04-.13.03-.19,0-.42-.2-.84-.41-1.26-.63-.1-.06-.19-.06-.29,0-.12.08-.25.14-.39.22.17-.32.27-.65.56-.86.06-.04.06-.08.03-.15-.05-.14-.1-.27-.21-.38-.04-.04-.07-.05-.11,0-.27.25-.54.49-.81.74-.37.34-.74.67-1.12,1,.05-.28,0-.57.16-.83.04-.07.03-.11-.03-.15-.04-.03-.07-.06-.11-.1q-.12-.12-.24,0c-.18.19-.37.37-.55.56-.04.04-.07.06-.13.05-.08,0-.16.01-.24,0-.14-.02-.23.06-.32.14-.37.34-.74.67-1.11,1.01,0,0,0,0-.01,0Z"/>
    </g>
  </g>
</svg>