<?xml version="1.0" encoding="UTF-8"?>
<svg id="Calque_2" data-name="Calque 2" xmlns="http://www.w3.org/2000/svg" viewBox="0 0 156.04 136.04">
  <defs>
    <style>
      .cls-1 {
        fill: #fff;
      }

      .cls-2 {
        fill: #1d1d1b;
      }
    </style>
  </defs>
  <g id="Calque_1-2" data-name="Calque 1">
    <path class="cls-1" d="m91.6,18.91l-1.76,1.9c-1.83.02-3.66.04-5.49.06-2.84.03-4.7,1.55-5.87,4-.57,1.21-.98,2.49-1.54,3.7-1.69,3.64-4.21,5.93-8.52,6.38-5.39.57-10.78.97-16.19,1.26-2.53.13-5,.34-7.5-.26-.94-.24-1.79-.66-2.6-1.1-1.88-1.03-3.86-1.12-5.92-.95-3.28.27-6.58.39-9.86.73-4.29.45-8.65.38-12.82,1.76-.98.32-1.81.83-2.59,1.42-3.65,2.81-6.82,5.98-7.88,10.72-.63,2.82-.81,5.64-.4,8.51.49,3.33.4,6.69.34,10.03-.16,8.58-.4,17.15-.6,25.72-.18,7.48-.33,14.97-.56,22.45l-.48,1.24c-.42-7.48-.11-14.98-.35-22.46-.3-9.58-.12-19.16-.17-28.74-.01-4.39-.93-8.71-.83-13.12.06-2.83.61-5.46,1.79-8,1.52-3.25,3.95-5.76,6.66-8.04,3.33-2.81,7.3-3.56,11.5-3.9,3.7-.3,7.39-.69,11.08-1.11,3.25-.36,6.57-.94,9.84-.13,1.27.32,2.43,1.08,3.68,1.53,2.73.97,5.58.52,8.38.46,2.47-.05,4.94-.24,7.4-.46,3.09-.29,6.21-.34,9.26-1.01,1.39-.3,2.46-1.12,3.24-2.21.89-1.26,1.55-2.65,2.05-4.14.89-2.69,2.48-4.89,5-6.37,1.27-.74,2.63-1.11,4.05-1.13,1.76-.02,3.53-.03,5.29-.04l2.37,1.3Z"/>
    <path class="cls-1" d="m155.93,58.88c-.21,4.91-.28,49.93-.4,54.85-.03,1.25-.04,2.5-.45,3.73-.02-.35-.05-.7-.06-1.06-.02-7.96-.49-56.01-.57-63.98-.04-3.54-.9-6.97-2.73-10.12-1.02-1.76-2.56-2.76-4.35-3.2-4.7-1.17-9.43-2.23-14.2-3.1-1.98-.37-3.98-.57-5.95-1.1-3.27-.88-5.54-2.75-6.79-5.97-.77-2-1.8-3.91-2.89-5.76-1.11-1.89-3.05-2.58-5.11-2.57-.76,0-1.52.01-2.28.02l-1.31-1.49,2.44-1.25c.86.02,1.72.04,2.58.06,3.05.08,5.26,2.01,6.63,4.71,1.12,2.23,2.01,4.59,3.13,6.82.87,1.74,2.51,2.61,4.32,3.02,3.76.86,7.57,1.55,11.34,2.4,2.8.63,5.59,1.35,8.36,2.13,4.32,1.22,6.27,4.54,7.38,8.58,1.2,4.37,1.09,8.81.91,13.28Z"/>
    <path class="cls-1" d="m125.96,70.8c-.06,15.82-12.48,28.25-27.83,28.26-15.6,0-27.02-12.48-27.84-26.43-1.04-17.55,12.97-30.33,27.94-30.18,15.2.15,27.74,12.56,27.73,28.35Zm-51.47-.07c.02,13.63,10.75,24.69,24.48,24.47,12.94-.21,23.94-10.71,23.64-25.21-.26-12.58-10.66-24.28-25.26-23.65-12.02.52-22.81,10.55-22.85,24.39Z"/>
    <path class="cls-1" d="m141.69,49.24c-4.15.27-8.36.63-12.58.54-.6-.01-.97-.31-1.34-.66-1.71-1.64-3.35-3.38-5.14-4.92-2.94-2.53-5.86-5.12-9.56-6.57-.8-.31-1.59-.41-2.41-.41-6.92,0-13.84-.08-20.77.03-3.3.05-6.7-.14-9.63,1.97-1.97,1.41-3.83,2.94-5.65,4.55-2.03,1.8-3.88,3.77-5.79,5.69-.27.28-.55.36-.92.36-4.27-.04-8.53-.07-12.8-.11-.2,0-.4-.08-.62-.36.47-.02.95-.07,1.42-.07,3.7-.03,7.4-.06,11.1-.05.73,0,1.23-.26,1.68-.8,3.28-4.02,6.73-7.86,11.06-10.8,1.75-1.19,3.58-1.92,5.77-1.98,5.83-.17,11.64-.56,17.48-.53,3.27.02,6.5.45,9.75.59,1.22.05,2.3.77,3.3,1.43,4.48,2.96,8.34,6.62,11.74,10.76.74.9,1.45,1.42,2.69,1.4,3.74-.07,7.48-.03,11.22-.03Z"/>
    <path class="cls-1" d="m117.15,69.27c-.25-3.68-1.64-7.23-3.92-10.18.04.26.06.52.06.79,0,3.41-2.77,6.17-6.17,6.17s-6.17-2.76-6.17-6.17,2.6-6.01,5.87-6.16c-2.57-1.33-5.53-2.12-8.75-2.14-10.36-.07-19.45,8.62-19.07,19.22-.27,10.59,8.64,19.08,18.96,19.14,10.31.06,20.02-8.54,19.19-20.67Z"/>
    <path class="cls-1" d="m137.55,120.88c-.02,5.09-4.02,9.1-8.96,9.1-5.03,0-8.7-4.02-8.97-8.51-.33-5.65,4.18-9.77,9-9.72,4.9.05,8.93,4.04,8.93,9.13Zm-16.58-.02c0,4.39,3.46,7.95,7.88,7.88,4.17-.07,7.71-3.45,7.61-8.12-.08-4.05-3.43-7.82-8.14-7.62-3.87.17-7.34,3.4-7.36,7.86Z"/>
    <path class="cls-1" d="m134.72,120.38c-.08-1.19-.53-2.33-1.26-3.28.01.08.02.17.02.25,0,1.1-.89,1.99-1.99,1.99s-1.99-.89-1.99-1.99.84-1.94,1.89-1.98c-.83-.43-1.78-.68-2.82-.69-3.34-.02-6.26,2.78-6.14,6.19-.09,3.41,2.78,6.14,6.11,6.16,3.32.02,6.45-2.75,6.18-6.66Z"/>
    <path class="cls-1" d="m110.15,20.62l-1.31-1.49,2.44-1.25,6.24-3.19-9.64-1.47,3.79-8.98-8.33,5.08-2.87-9.32-3.11,9.24-8.19-5.29,3.55,9.07-9.68,1.21,6.19,3.38,2.37,1.3-1.76,1.9-4.87,5.24,9.56-1.92-.49,9.74,6.09-7.62,5.88,7.77-.23-9.74,9.5,2.17-5.13-5.83Zm-6.64.88l.14,5.98-3.61-4.77-3.73,4.67.3-5.97-5.87,1.18,1.68-1.81,2.39-2.58-1.05-.57-4.2-2.29,5.94-.74-2.18-5.57,5.02,3.24,1.91-5.66,1.76,5.71,5.11-3.11-2.33,5.51,5.92.9-4.24,2.16-1.09.56,2.02,2.3,1.94,2.19-5.83-1.33Z"/>
    <path class="cls-1" d="m26.43,120.44c-.1-2.66-.2-5.83-.19-9.06h-.09c-.7,2.81-1.63,5.94-2.45,8.53l-2.69,8.57h-3.86l-2.37-8.5c-.71-2.59-1.44-5.71-1.98-8.61h-.07c-.11,2.99-.23,6.38-.36,9.12l-.41,8.34h-4.6l1.41-21.98h6.63l2.14,7.35c.69,2.52,1.37,5.28,1.86,7.86h.11c.6-2.54,1.35-5.45,2.09-7.89l2.33-7.31h6.5l1.18,21.98h-4.83l-.34-8.41Z"/>
    <path class="cls-1" d="m39.01,112.88l2.38,7.85c.27.94.58,2.13.8,2.96h.1c.22-.86.48-2.05.71-2.97l1.97-7.84h5.29l-3.7,10.51c-2.29,6.34-3.82,8.87-5.62,10.47-1.71,1.5-3.54,2.05-4.78,2.18l-1.06-4.18c.63-.12,1.4-.41,2.16-.84.76-.4,1.58-1.2,2.05-1.99.17-.25.28-.5.28-.72,0-.19-.04-.42-.22-.82l-5.85-14.61h5.49Z"/>
    <path class="cls-1" d="m52.54,107.15c1.53-.26,3.68-.46,6.71-.46s5.26.59,6.73,1.78c1.41,1.09,2.33,2.93,2.33,5.08s-.7,3.99-2.01,5.21c-1.7,1.6-4.23,2.33-7.14,2.33-.66,0-1.25-.04-1.7-.11v7.87h-4.93v-21.69Zm4.93,9.97c.41.09.92.13,1.65.13,2.64,0,4.27-1.34,4.27-3.56,0-2.02-1.38-3.23-3.89-3.23-.98,0-1.67.08-2.03.16v6.5Z"/>
    <path class="cls-1" d="m71.24,105.69h4.97v9.12h.06c.52-.7,1.16-1.23,1.94-1.65.74-.4,1.66-.63,2.58-.63,3.17,0,5.59,2.2,5.59,7.01v9.31h-4.97v-8.77c0-2.1-.72-3.54-2.56-3.54-1.32,0-2.14.85-2.49,1.75-.12.3-.16.72-.16,1.08v9.47h-4.97v-23.16Z"/>
    <path class="cls-1" d="m114.71,108.33v4.55h3.57v3.66h-3.57v5.78c0,1.93.48,2.81,1.96,2.81.64,0,1.13-.07,1.48-.15l.04,3.77c-.64.23-1.83.43-3.22.43-1.6,0-2.94-.56-3.74-1.39-.92-.95-1.37-2.46-1.37-4.73v-6.53h-2.12v-3.66h2.12v-3.43l4.85-1.12Z"/>
    <path class="cls-1" d="m105.39,120.7c0,5.83-4.13,8.5-8.41,8.5-4.64,0-8.24-3.07-8.24-8.23s3.4-8.46,8.53-8.46,8.13,3.36,8.13,8.18Zm-11.54.16c0,2.72,1.15,4.79,3.27,4.79,1.94,0,3.16-1.94,3.16-4.82,0-2.35-.91-4.77-3.16-4.77-2.37,0-3.27,2.43-3.27,4.8Z"/>
    <path class="cls-1" d="m139.78,124.52c.9.56,2.81,1.19,4.26,1.19s2.14-.5,2.14-1.32-.51-1.23-2.34-1.85c-3.32-1.09-4.57-2.9-4.55-4.77,0-3,2.53-5.25,6.49-5.25,1.87,0,3.52.44,4.5.93l-.86,3.42c-.72-.38-2.11-.9-3.46-.9-1.21,0-1.91.48-1.91,1.29s.63,1.17,2.59,1.84c3.03,1.03,4.3,2.59,4.32,4.91,0,2.98-2.32,5.17-6.9,5.17-2.08,0-3.95-.47-5.17-1.12l.9-3.54Z"/>
    <path class="cls-2" d="m83.01,78.25c.78-.86,1.57-1.72,2.35-2.58.51-.56,1.02-1.12,1.52-1.68.13-.15.26-.24.48-.24.33,0,.67-.05,1-.06.3-.01.53-.11.75-.35.73-.82,1.49-1.62,2.23-2.44.18-.2.29-.22.5-.03.71.63,1.44,1.22,2.15,1.84.2.17.31.15.48-.03.81-.85,1.63-1.67,2.44-2.52.19-.2.4-.31.67-.28.24.03.38-.06.53-.25.51-.66,1.05-1.3,1.56-1.96.15-.2.24-.18.39-.01.93,1.03,1.87,2.06,2.81,3.08.97,1.06,1.95,2.11,2.91,3.17.18.2.28.16.43-.01.17-.2.37-.38.55-.59.15-.17.25-.17.43-.02,2.05,1.67,4.11,3.34,6.17,5,.25.2.5.39.72.63-.59-.29-1.18-.59-1.78-.88-1.77-.88-3.55-1.75-5.32-2.64-.16-.08-.28-.07-.44,0-.44.22-.89.4-1.32.63-.25.13-.44.1-.68,0-1.48-.69-2.94-1.42-4.38-2.2-.36-.2-.67-.2-1.03.02-.42.26-.86.49-1.37.77.58-1.12.96-2.27,1.96-3.01.19-.14.2-.29.12-.51-.17-.48-.34-.96-.73-1.33-.15-.15-.23-.17-.39-.02-.93.86-1.87,1.71-2.81,2.57-1.29,1.17-2.58,2.35-3.9,3.51.16-.97-.01-2,.55-2.89.15-.23.09-.38-.11-.53-.13-.1-.25-.22-.37-.34q-.43-.41-.85.02c-.64.65-1.28,1.3-1.92,1.96-.13.13-.25.19-.44.19-.28,0-.56.05-.83,0-.5-.07-.81.21-1.13.5-1.29,1.18-2.59,2.34-3.88,3.52-.01,0-.03-.02-.04-.03Z"/>
  </g>
</svg>